<?xml version="1.0" encoding="utf-8"?>
<!-- Generator: Adobe Illustrator 18.0.0, SVG Export Plug-In . SVG Version: 6.00 Build 0)  -->
<svg version="1.1" id="Livello_1"
	 xmlns="http://www.w3.org/2000/svg" xmlns:xlink="http://www.w3.org/1999/xlink" x="0px" y="0px" viewBox="0 0 48.4 48.4"
	 enable-background="new 0 0 48.4 48.4" xml:space="preserve">

	<g>
		<g>
			<g>
				<g>
					<circle fill="none" stroke="#C2B054" stroke-miterlimit="10" cx="24.3" cy="24.1" r="22.7"/>
				</g>
			</g>
		</g>
		<g>
			<path fill="#C2B054" d="M35.2,17.8H13.3c-1.3,0-2.4,1.1-2.4,2.4V31c0,1.3,1.1,2.4,2.4,2.4h21.9c1.3,0,2.4-1.1,2.4-2.4V20.2
				C37.7,18.9,36.6,17.8,35.2,17.8z M24.1,31c-3,0-5.4-2.4-5.4-5.4c0-3,2.4-5.4,5.4-5.4c3,0,5.4,2.4,5.4,5.4
				C29.5,28.6,27.1,31,24.1,31z"/>
			<circle fill="#C2B054" cx="24.1" cy="25.6" r="2.7"/>
			<path fill="#C2B054" d="M31.5,16.8h3.3c0.4,0,0.8-0.3,0.8-0.8v-1.5c0-0.4-0.3-0.8-0.8-0.8h-3.3c-0.4,0-0.8,0.3-0.8,0.8V16
				C30.7,16.4,31.1,16.8,31.5,16.8z"/>
		</g>
	</g>

</svg>
