<?xml version="1.0" encoding="utf-8"?>
<!-- Generator: Adobe Illustrator 18.0.0, SVG Export Plug-In . SVG Version: 6.00 Build 0)  -->
<svg version="1.1" id="Livello_1"
	 xmlns="http://www.w3.org/2000/svg" xmlns:xlink="http://www.w3.org/1999/xlink" x="0px" y="0px" viewBox="0 0 48.3 48.4"
	 enable-background="new 0 0 48.3 48.4" xml:space="preserve">

	<g>
		<g>
			
				<circle fill="none" stroke="#C1C1C1" stroke-width="1.2129" stroke-linecap="round" stroke-linejoin="round" stroke-miterlimit="10" cx="24" cy="24" r="22.7"/>
		</g>
		<g>
			<g>
				<g>
					<g>
						<path fill="#C1C1C1" d="M10,23.4c0-0.4,0-0.7,0-1.1c0,0,0-0.1,0-0.1c0.1-0.6,0.1-1.2,0.2-1.7c0.3-1.7,1-3.3,2.1-4.7
							c1.2-1.5,2.7-2.6,4.5-3.4c2.3-1,4.7-1.2,7.1-0.8c1.9,0.3,3.6,0.9,5.3,1.8c3.2,1.7,5.5,4.3,7.1,7.5c0.6,1.3,1,2.6,1.2,4
							c0,0.2,0,0.4,0.1,0.6c0,0.3,0,0.6,0,1c0,0,0,0.1,0,0.1c0,0.3-0.1,0.6-0.1,0.9c-0.1,0.6-0.3,1.1-0.8,1.4
							c-0.4,0.3-0.8,0.4-1.3,0.2c-0.3-0.1-0.5-0.3-0.7-0.6c-0.1-0.2-0.3-0.4-0.4-0.7c-0.3-0.5-0.6-1-1-1.4C33.1,26.2,33,26,32.8,26
							c-0.3-0.1-0.5-0.1-0.7,0.2c-0.1,0.1-0.2,0.3-0.2,0.4c-0.2,0.6-0.3,1.1-0.2,1.7c0.1,0.7,0.4,1.4,0.7,2.1
							c0.3,0.8,0.6,1.6,0.8,2.4c0.5,1.7-0.3,3.3-1.9,4.1c-1.6,0.8-3.3,1.1-5.1,1.1c-2.3,0-4.5-0.5-6.6-1.5c-2-0.9-3.8-2.2-5.4-3.7
							c-2.4-2.3-3.8-5.2-4.2-8.5C10.1,23.8,10,23.6,10,23.4z M24,17.3c0,1.3,1.1,2.3,2.4,2.3c1.3,0,2.3-1.1,2.3-2.3
							c0-1.3-1.1-2.3-2.3-2.3C25.1,15,24,16.1,24,17.3z M19,14.8c-1.3,0-2.3,1.1-2.3,2.3c0,1.3,1.1,2.3,2.3,2.3
							c1.3,0,2.3-1.1,2.3-2.3C21.3,15.9,20.3,14.8,19,14.8z M15,21.1c-1.3,0-2.3,1-2.3,2.3c0,1.3,1,2.3,2.3,2.4c1.3,0,2.3-1,2.4-2.3
							C17.4,22.1,16.3,21.1,15,21.1z M20.8,29.4c0-1.3-1-2.3-2.3-2.3c-1.3,0-2.3,1-2.3,2.3c0,1.3,1,2.3,2.3,2.4
							C19.7,31.7,20.8,30.7,20.8,29.4z"/>
					</g>
				</g>
			</g>
		</g>
	</g>
</svg>
