<?xml version="1.0" encoding="utf-8"?>
<!-- Generator: Adobe Illustrator 18.0.0, SVG Export Plug-In . SVG Version: 6.00 Build 0)  -->
<svg version="1.1" id="Livello_1"
	 xmlns="http://www.w3.org/2000/svg" xmlns:xlink="http://www.w3.org/1999/xlink" x="0px" y="0px" viewBox="0 0 48.4 48.4"
	 enable-background="new 0 0 48.4 48.4" xml:space="preserve">

	<g>
		<g>
			<path fill="none" stroke="#C1C1C1" stroke-miterlimit="10" d="M24,2.3C11.5,2.3,1.3,12.5,1.3,25c0,12.5,10.2,22.7,22.7,22.7
				c12.5,0,22.7-10.2,22.7-22.7C46.7,12.5,36.6,2.3,24,2.3z M30.5,15.4c0-0.4,0.3-0.8,0.8-0.8h3.3c0.4,0,0.8,0.3,0.8,0.8v1.5
				c0,0.4-0.3,0.8-0.8,0.8h-3.3c-0.4,0-0.8-0.3-0.8-0.8V15.4z M37.4,31.9c0,1.3-1.1,2.4-2.4,2.4H13.1c-1.3,0-2.4-1.1-2.4-2.4V21.2
				c0-1.3,1.1-2.4,2.4-2.4H35c1.3,0,2.4,1.1,2.4,2.4V31.9z"/>
			<path fill="#C1C1C1" d="M37.3,21.5c0-1.3-1.1-2.4-2.4-2.4H12.7c-1.3,0-2.4,1.1-2.4,2.4v11.2c0,1.3,1.1,2.4,2.4,2.4h22.2
				c1.3,0,2.4-1.1,2.4-2.4V21.5z M23.9,31.9c-3,0-5.4-2.4-5.4-5.4c0-3,2.4-5.4,5.4-5.4c3,0,5.4,2.4,5.4,5.4
				C29.3,29.5,26.8,31.9,23.9,31.9z"/>
			<circle fill="#C1C1C1" cx="23.9" cy="26.5" r="2.7"/>
			<path fill="#C1C1C1" d="M35.3,15.8c0-0.4-0.3-0.8-0.8-0.8H31c-0.4,0-0.8,0.3-0.8,0.8v1.5c0,0.4,0.3,0.8,0.8,0.8h3.5
				c0.4,0,0.8-0.3,0.8-0.8V15.8z"/>
		</g>
	</g>
</svg>
