<?xml version="1.0" encoding="utf-8"?>
<!-- Generator: Adobe Illustrator 19.0.0, SVG Export Plug-In . SVG Version: 6.00 Build 0)  -->
<svg version="1.1" id="Livello_1" xmlns="http://www.w3.org/2000/svg" xmlns:xlink="http://www.w3.org/1999/xlink" x="0px" y="0px"
	 viewBox="0 0 595.3 841.9" style="enable-background:new 0 0 595.3 841.9;" xml:space="preserve">
<style type="text/css">
	.st0{fill-rule:evenodd;clip-rule:evenodd;fill:#EAEAEA;}

		.st1{fill-rule:evenodd;clip-rule:evenodd;fill:none;stroke:#111111;stroke-width:2;stroke-linecap:round;stroke-linejoin:round;stroke-miterlimit:10;}
	.st2{fill:none;stroke:#111111;stroke-width:2;stroke-linecap:round;stroke-linejoin:round;stroke-miterlimit:10;}
	.st3{fill-rule:evenodd;clip-rule:evenodd;fill:none;stroke:#424141;stroke-width:2;stroke-miterlimit:10;}
	.st4{fill:#EAEAEA;}
	.st5{fill:#C3B154;}
	.st6{fill:#766B33;}
	.st7{fill:#7A6BAD;}
.st0{fill:none;stroke:#414140;stroke-width:3;stroke-linecap:round;stroke-linejoin:round;}
	.st1{fill:none;stroke:#414140;stroke-width:3;stroke-linecap:round;stroke-linejoin:round;stroke-dasharray:1.0408,5.2041;}
	.st2{fill:none;stroke:#414140;stroke-width:3;stroke-linecap:round;stroke-linejoin:round;stroke-dasharray:1.009,5.0449;}
	.st3{fill:none;stroke:#414140;stroke-width:3;stroke-linecap:round;stroke-linejoin:round;stroke-dasharray:0.99,4.9501;}
	.st4{fill:none;stroke:#414140;stroke-width:3;stroke-linecap:round;stroke-linejoin:round;stroke-dasharray:0.9998,4.999;}
	.st5{fill:none;stroke:#414140;stroke-width:3;stroke-linecap:round;stroke-linejoin:round;stroke-dasharray:0.9895,4.9474;}
	.st6{fill:none;stroke:#414140;stroke-width:3;stroke-linecap:round;stroke-linejoin:round;stroke-dasharray:1.0172,5.086;}
	.st7{fill:none;stroke:#414140;stroke-width:3;stroke-linecap:round;stroke-linejoin:round;stroke-dasharray:1.0139,5.0694;}
	.st8{fill:none;stroke:#414140;stroke-width:3;stroke-linecap:round;stroke-linejoin:round;stroke-dasharray:1.1224,5.6118;}
	.st9{fill:none;stroke:#414140;stroke-width:3;stroke-linecap:round;stroke-linejoin:round;stroke-dasharray:1.0056,5.0279;}
	.st10{fill:none;stroke:#414140;stroke-width:3;stroke-linecap:round;stroke-linejoin:round;stroke-dasharray:0.9707,4.8536;}
	.st11{fill-rule:evenodd;clip-rule:evenodd;fill:#EAEAEA;}
</style>
<polygon class="st0" points="113.7,341.4 117.1,394.4 182.9,386.7 177.7,334.8 "/>
<polyline class="st1" points="283.4,370.3 224.3,377 221.7,358.4 "/>
<line class="st2" x1="216.7" y1="325.5" x2="218.7" y2="340.7"/>
<polyline class="st3" points="490.6,367.1 484.3,373.3 490.6,380 "/>
<g>
	<g id="XMLID_28_">
		<line id="XMLID_49_" class="st0" x1="581.1" y1="240.6" x2="581.2" y2="241.1"/>
		<line id="XMLID_48_" class="st1" x1="581.8" y1="246.3" x2="585.8" y2="280.9"/>
		<polyline id="XMLID_47_" class="st0" points="586.1,283.5 586.2,284 585.7,284 		"/>
		<line id="XMLID_46_" class="st2" x1="580.7" y1="284.6" x2="402.7" y2="304.3"/>
		<polyline id="XMLID_45_" class="st0" points="400.2,304.6 399.7,304.7 399.7,305.2 		"/>
		<line id="XMLID_44_" class="st3" x1="400.1" y1="310.1" x2="403.3" y2="355"/>
		<polyline id="XMLID_43_" class="st0" points="403.5,357.5 403.5,358 403,358 		"/>
		<line id="XMLID_42_" class="st4" x1="398" y1="357.9" x2="328.5" y2="356.4"/>
		<polyline id="XMLID_41_" class="st0" points="326,356.3 325.5,356.3 325.5,355.8 		"/>
		<line id="XMLID_40_" class="st5" x1="325.2" y1="350.9" x2="320.3" y2="276.3"/>
		<polyline id="XMLID_39_" class="st0" points="320.1,273.9 320.1,273.4 320.6,273.3 		"/>
		<line id="XMLID_38_" class="st6" x1="325.6" y1="272.7" x2="365.5" y2="267.6"/>
		<polyline id="XMLID_37_" class="st0" points="368,267.2 368.5,267.2 368.6,267.7 		"/>
		<line id="XMLID_36_" class="st7" x1="369.2" y1="272.7" x2="377.8" y2="336.5"/>
		<polyline id="XMLID_35_" class="st0" points="378.1,339 378.2,339.5 378.7,339.5 		"/>
		<line id="XMLID_34_" class="st8" x1="384.3" y1="338.9" x2="388.2" y2="338.6"/>
		<polyline id="XMLID_33_" class="st0" points="391,338.3 391.5,338.2 391.4,337.8 		"/>
		<line id="XMLID_32_" class="st9" x1="390.9" y1="332.8" x2="378.5" y2="215.2"/>
		<polyline id="XMLID_31_" class="st0" points="378.3,212.7 378.2,212.2 378.7,212.2 		"/>
		<line id="XMLID_30_" class="st10" x1="383.5" y1="211.7" x2="439.1" y2="206.3"/>
		<line id="XMLID_29_" class="st0" x1="441.5" y1="206" x2="442" y2="206"/>
	</g>
	<g id="XMLID_59_">
		<polygon id="XMLID_66_" class="st2" points="473.9,495.5 386,495.5 386,522.6 271.8,522.2 271.8,497.3 245.8,497.3 245.8,507.8
			116,504.9 105.9,337.1 279.1,318.4 281.4,370.3 472.3,347.6 		"/>
		<polyline id="XMLID_65_" class="st2" points="416.7,390.9 422.4,446.3 337.5,457.1 		"/>
		<line id="XMLID_64_" class="st2" x1="194.6" y1="475" x2="181.8" y2="358.3"/>
		<line id="XMLID_63_" class="st2" x1="119.3" y1="400" x2="181.4" y2="392.1"/>
		<rect id="XMLID_62_" x="275.3" y="482.7" class="st4" width="107" height="35.9"/>
		<rect id="XMLID_61_" x="246.2" y="472.5" class="st4" width="22" height="21.4"/>
		<polyline id="XMLID_60_" class="st2" points="271.8,497.3 271.8,469 245,469 		"/>
	</g>
</g>
<circle class="st5" cx="152.4" cy="400.1" 	r="6.9" id="opera1"/>
<circle class="st6" cx="201.7" cy="420" 	r="6.9"/>
<circle class="st7" cx="265.2" cy="421.8" 	r="6.9"/>
<circle class="st7" cx="358.3" cy="414" 	r="6.9"/>
<circle class="st7" cx="429.9" cy="364.1" 	r="6.9"/>
<circle class="st6" cx="261.9" cy="357.2" 	r="6.9"/>
<circle class="st6" cx="303.2" cy="380.2" r="6.9"/>
<circle class="st6" cx="339.1" cy="375.1" r="6.9"/>
<circle class="st6" cx="375.1" cy="370.9" r="6.9"/>
<circle class="st5" cx="355.1" cy="455.2" r="6.9"/>
<circle class="st5" cx="398.1" cy="448.2" r="6.9"/>
<circle class="st5" cx="419.7" cy="406" r="6.9"/>
</svg>
